<svg width="215" height="369" viewBox="0 0 215 369" fill="none" xmlns="http://www.w3.org/2000/svg">
<path d="M30.3398 369V203.961H0.554688L17.6445 164.898H30.3398V91.9004C30.3398 66.5098 39.2917 44.8626 57.1953 26.959C75.099 9.05534 96.7461 0.103516 122.137 0.103516C148.016 0.103516 169.744 9.05534 187.322 26.959C205.389 45.5137 214.422 67.1608 214.422 91.9004V92.877L175.359 109.967V92.6328C175.034 77.4961 169.826 64.9635 159.734 55.0352C149.155 44.6185 136.622 39.4102 122.137 39.4102C107.651 39.4102 95.1999 44.6185 84.7832 55.0352C74.5293 65.2891 69.4023 77.5775 69.4023 91.9004C69.4023 92.2259 69.4023 92.4701 69.4023 92.6328V164.898H184.637L167.547 203.961H69.4023V351.91L30.3398 369Z" fill="#ED64A6"/>
</svg>
